# xmcd CD database file
#
# Track frame offsets:
#	183
#	11590
#	21535
#	30660
#	41553
#	53578
#	67575
#	78145
#	87005
#	96268
#
# Disc length: 1420 seconds
#
# Revision: 2
# Processed by: cddbd v1.5.2PL0 Copyright (c) Steve Scherf et al.
# Submitted via: CDex 1.51
#
DISCID=69058a0a
DTITLE=Harpers Bizzare - Feelin' Groovy
DYEAR=1967
DGENRE=Rock
TTITLE0=Come To The Sunshine
TTITLE1=Happy Talk
TTITLE2=Come Love
TTITLE3=Raspberry Rug
TTITLE4=59th Street Bridge Song (Feelin' Groovy)
TTITLE5=The Debutante's Ball
TTITLE6=Happyland
TTITLE7=Peter And The Wolf
TTITLE8=I Can Hear The Darkness
TTITLE9=Simon Smith And The Amazing Dancing Bear
EXTD=YEAR: 1967
EXTT0=
EXTT1=
EXTT2=
EXTT3=
EXTT4=
EXTT5=
EXTT6=
EXTT7=
EXTT8=
EXTT9=
PLAYORDER=
